# xmcd CD database file
#
# Track frame offsets:
#	150
#	22559
#	42417
#	61982
#	80030
#	105874
#	124995
#	151138
#	178657
#
# Disc length: 2805 seconds
#
# Revision: 0
# Processed by: cddbd v1.5.1PL0 Copyright (c) Steve Scherf et al.
# Submitted via: CDex 1.50
#
DISCID=640af309
DTITLE=Savoy Brown - Jack the toad
DYEAR=1973
DGENRE=Blues
TTITLE0=Coming down your way
TTITLE1=Ride on babe
TTITLE2=Hold your fire
TTITLE3=If I want to
TTITLE4=Endless sleep
TTITLE5=Casting my spell
TTITLE6=Just 'cos you got the blues don't mean you gotta sing
TTITLE7=Some people
TTITLE8=Jack the toad
EXTD=YEAR: 1973
EXTT0=
EXTT1=
EXTT2=
EXTT3=
EXTT4=
EXTT5=
EXTT6=
EXTT7=
EXTT8=
PLAYORDER=
